<?xml version="1.0" encoding="UTF-8" standalone="no"?>
<svg
   width="486.46417"
   zoomAndPan="magnify"
   viewBox="0 0 364.84813 32.005665"
   height="42.674221"
   preserveAspectRatio="xMidYMid"
   version="1.0"
   id="svg46"
   xmlns="http://www.w3.org/2000/svg"
   xmlns:svg="http://www.w3.org/2000/svg">
  <defs
     id="defs1" />
  <g
     fill="#000000"
     fill-opacity="1"
     id="g4"
     transform="translate(-4.5470191,-147.94125)">
    <g
       transform="translate(4.5e-6,178.20945)"
       id="g3">
      <g
         id="g2">
        <path
           d="M 4.953125,-13.765625 20.015625,-23.5 v 3.609375 l -11.921875,7.71875 11.921875,7.703125 v 3.609375 l -15.0625,-9.734375 z m 0,0"
           id="path1" />
      </g>
    </g>
  </g>
  <g
     fill="#000000"
     fill-opacity="1"
     id="g7"
     transform="translate(-4.5470191,-147.94125)">
    <g
       transform="translate(24.936874,178.20945)"
       id="g6">
      <g
         id="g5">
        <path
           d="m 5.6875,-12.109375 v 3.4375 c 0,1.835937 0.625,3.320313 1.875,4.453125 1.25,1.125 2.804688,1.6875 4.671875,1.6875 H 12.75 c 2.132812,0 3.753906,-0.523438 4.859375,-1.578125 1.101563,-1.050781 1.65625,-2.570313 1.65625,-4.5625 v -3.4375 c 0,-1.976563 -0.554687,-3.492187 -1.65625,-4.546875 C 16.503906,-17.71875 14.882812,-18.25 12.75,-18.25 h -0.515625 c -2.136719,0 -3.761719,0.53125 -4.875,1.59375 -1.117187,1.0625 -1.671875,2.578125 -1.671875,4.546875 z m 6.546875,-9.171875 H 12.75 c 2.6875,0 4.859375,0.671875 6.515625,2.015625 v -9.140625 h 3.03125 V 0 h -3.03125 v -1.5 c -1.648437,1.335938 -3.820313,2 -6.515625,2 H 12.234375 C 10.460938,0.5 8.847656,0.125 7.390625,-0.625 5.941406,-1.382812 4.785156,-2.46875 3.921875,-3.875 3.066406,-5.289062 2.640625,-6.890625 2.640625,-8.671875 v -3.4375 c 0,-2.707031 0.828125,-4.910156 2.484375,-6.609375 1.65625,-1.707031 4.023438,-2.5625 7.109375,-2.5625 z m 0,0"
           id="path4" />
      </g>
    </g>
  </g>
  <g
     fill="#000000"
     fill-opacity="1"
     id="g10"
     transform="translate(-4.5470191,-147.94125)">
    <g
       transform="translate(49.873743,178.20945)"
       id="g9">
      <g
         id="g8">
        <path
           d="m 5.6875,-9.859375 v 2.40625 c 0,0.5625 0.128906,1.121094 0.390625,1.671875 0.257813,0.554688 0.640625,1.078125 1.140625,1.578125 0.5,0.492187 1.1875,0.890625 2.0625,1.203125 0.875,0.3125 1.859375,0.46875 2.953125,0.46875 H 12.75 c 0.3125,0 0.613281,-0.00391 0.90625,-0.015625 C 13.957031,-2.566406 14.410156,-2.625 15.015625,-2.71875 15.628906,-2.820312 16.164062,-2.957031 16.625,-3.125 17.09375,-3.300781 17.5625,-3.570312 18.03125,-3.9375 18.5,-4.3125 18.828125,-4.75 19.015625,-5.25 l 2.84375,1.09375 c -0.574219,1.460938 -1.636719,2.601562 -3.1875,3.421875 C 17.128906,0.0859375 15.15625,0.5 12.75,0.5 H 12.234375 C 10.765625,0.5 9.410156,0.269531 8.171875,-0.1875 6.929688,-0.644531 5.914062,-1.25 5.125,-2 4.332031,-2.75 3.71875,-3.59375 3.28125,-4.53125 2.851562,-5.476562 2.640625,-6.453125 2.640625,-7.453125 V -13.375 c 0,-2.320312 0.84375,-4.21875 2.53125,-5.6875 1.695313,-1.476562 4.050781,-2.21875 7.0625,-2.21875 H 12.75 c 3.007812,0 5.351562,0.742188 7.03125,2.21875 1.675781,1.46875 2.515625,3.367188 2.515625,5.6875 v 3.515625 z M 19.265625,-12.90625 V -13.375 c 0,-1.457031 -0.546875,-2.632812 -1.640625,-3.53125 C 16.53125,-17.800781 14.90625,-18.25 12.75,-18.25 h -0.515625 c -2.167969,0 -3.804687,0.449219 -4.90625,1.34375 -1.09375,0.898438 -1.640625,2.074219 -1.640625,3.53125 v 0.46875 z m 0,0"
           id="path7" />
      </g>
    </g>
  </g>
  <g
     fill="#000000"
     fill-opacity="1"
     id="g13"
     transform="translate(-4.5470191,-147.94125)">
    <g
       transform="translate(74.810612,178.20945)"
       id="g12">
      <g
         id="g11">
        <path
           d="m 11.484375,0.5 -9.0625,-21.28125 H 5.71875 L 12.5,-4.890625 19.28125,-20.78125 h 3.3125 L 13.515625,0.5 Z m 0,0"
           id="path10" />
      </g>
    </g>
  </g>
  <g
     fill="#000000"
     fill-opacity="1"
     id="g16"
     transform="translate(-4.5470191,-147.94125)">
    <g
       transform="translate(99.747481,178.20945)"
       id="g15">
      <g
         id="g14">
        <path
           d="m 19.46875,-29.671875 2.625,1.5 L 5.484375,1.265625 2.84375,-0.25 Z m 0,0"
           id="path13" />
      </g>
    </g>
  </g>
  <g
     fill="#000000"
     fill-opacity="1"
     id="g19"
     transform="translate(-4.5470191,-147.94125)">
    <g
       transform="translate(124.68435,178.20945)"
       id="g18">
      <g
         id="g17">
        <path
           d="m 12.75,-18.21875 h -0.515625 c -2.136719,0 -3.761719,0.527344 -4.875,1.578125 -1.117187,1.054687 -1.671875,2.5625 -1.671875,4.53125 v 3.4375 c 0,1.835937 0.625,3.320313 1.875,4.453125 1.25,1.125 2.804688,1.6875 4.671875,1.6875 H 12.75 c 1.507812,0 2.816406,-0.207031 3.921875,-0.625 1.101563,-0.425781 1.867187,-1.070312 2.296875,-1.9375 L 21.6875,-3.75 c -0.667969,1.375 -1.777344,2.429688 -3.328125,3.15625 C 16.816406,0.132812 14.945312,0.5 12.75,0.5 H 12.234375 C 10.460938,0.5 8.847656,0.125 7.390625,-0.625 5.941406,-1.382812 4.785156,-2.46875 3.921875,-3.875 3.066406,-5.289062 2.640625,-6.890625 2.640625,-8.671875 v -3.4375 c 0,-2.707031 0.828125,-4.910156 2.484375,-6.609375 1.65625,-1.695312 4.023438,-2.546875 7.109375,-2.546875 H 12.75 c 4.757812,0 7.757812,1.40625 9,4.21875 l -2.796875,1.21875 C 18.234375,-17.421875 16.164062,-18.21875 12.75,-18.21875 Z m 0,0"
           id="path16" />
      </g>
    </g>
  </g>
  <g
     fill="#000000"
     fill-opacity="1"
     id="g22"
     transform="translate(-4.5470191,-147.94125)">
    <g
       transform="translate(149.62122,178.20945)"
       id="g21">
      <g
         id="g20">
        <path
           d="m 19.265625,-13.984375 c 0,-0.488281 -0.125,-0.972656 -0.375,-1.453125 -0.25,-0.476562 -0.625,-0.929688 -1.125,-1.359375 -0.492187,-0.4375 -1.171875,-0.785156 -2.046875,-1.046875 C 14.851562,-18.113281 13.863281,-18.25 12.75,-18.25 h -0.515625 c -0.90625,0 -1.789063,0.234375 -2.640625,0.703125 C 8.75,-17.085938 8.050781,-16.53125 7.5,-15.875 c -0.554688,0.65625 -0.996094,1.328125 -1.328125,2.015625 -0.324219,0.679687 -0.484375,1.261719 -0.484375,1.75 V 0 H 2.640625 V -28.40625 H 5.6875 v 10.015625 c 1.925781,-1.925781 4.109375,-2.890625 6.546875,-2.890625 H 12.75 c 2.894531,0 5.207031,0.710938 6.9375,2.125 1.738281,1.417969 2.609375,3.140625 2.609375,5.171875 V 0 h -3.03125 z m 0,0"
           id="path19" />
      </g>
    </g>
  </g>
  <g
     fill="#000000"
     fill-opacity="1"
     id="g25"
     transform="translate(-4.5470191,-147.94125)">
    <g
       transform="translate(174.55809,178.20945)"
       id="g24">
      <g
         id="g23">
        <path
           d="m 12.75,-2.53125 c 0.769531,0 1.515625,-0.109375 2.234375,-0.328125 0.726563,-0.21875 1.34375,-0.484375 1.84375,-0.796875 0.5,-0.320312 0.9375,-0.65625 1.3125,-1 0.382813,-0.34375 0.664063,-0.648438 0.84375,-0.921875 0.1875,-0.269531 0.28125,-0.460937 0.28125,-0.578125 v -3.703125 h -7.03125 c -0.96875,0 -1.851563,0.085937 -2.640625,0.25 -0.792969,0.167969 -1.421875,0.375 -1.890625,0.625 -0.46875,0.25 -0.867187,0.523437 -1.1875,0.8125 -0.3125,0.292969 -0.53125,0.554687 -0.65625,0.78125 C 5.742188,-7.171875 5.6875,-6.988281 5.6875,-6.84375 v 1.1875 c 0,0.25 0.132812,0.546875 0.40625,0.890625 C 6.363281,-4.429688 6.75,-4.09375 7.25,-3.75 c 0.507812,0.34375 1.203125,0.636719 2.078125,0.875 0.882813,0.230469 1.851563,0.34375 2.90625,0.34375 z M 2.640625,-6.84375 c 0,-0.644531 0.179687,-1.304688 0.546875,-1.984375 0.363281,-0.675781 0.90625,-1.320313 1.625,-1.9375 0.726562,-0.625 1.738281,-1.132813 3.03125,-1.53125 1.289062,-0.40625 2.753906,-0.609375 4.390625,-0.609375 h 7.03125 v -1.078125 C 19.265625,-16.828125 17.09375,-18.25 12.75,-18.25 h -0.515625 c -3.167969,0 -5.1875,0.714844 -6.0625,2.140625 l -2.59375,-1.625 c 1.476563,-2.363281 4.363281,-3.546875 8.65625,-3.546875 H 12.75 c 1.519531,0 2.863281,0.164062 4.03125,0.484375 1.175781,0.324219 2.101562,0.734375 2.78125,1.234375 0.675781,0.492188 1.226562,1.078125 1.65625,1.765625 0.4375,0.679687 0.722656,1.324219 0.859375,1.9375 0.144531,0.605469 0.21875,1.230469 0.21875,1.875 V 0 h -3.03125 V -1.71875 C 17.203125,-0.238281 15.03125,0.5 12.75,0.5 H 12.234375 C 10.597656,0.5 9.066406,0.273438 7.640625,-0.171875 6.210938,-0.628906 5.019531,-1.335938 4.0625,-2.296875 3.113281,-3.253906 2.640625,-4.375 2.640625,-5.65625 Z m 0,0"
           id="path22" />
      </g>
    </g>
  </g>
  <g
     fill="#000000"
     fill-opacity="1"
     id="g28"
     transform="translate(-4.5470191,-147.94125)">
    <g
       transform="translate(199.49496,178.20945)"
       id="g27">
      <g
         id="g26">
        <path
           d="m 14.828125,-18.25 h -0.5 c -1.449219,0 -2.855469,0.476562 -4.21875,1.421875 -1.367187,0.9375 -2.445313,2.078125 -3.234375,3.421875 -0.792969,1.34375 -1.1875,2.636719 -1.1875,3.875 V 0 H 2.640625 V -20.78125 H 5.6875 v 3.859375 c 1.132812,-1.332031 2.453125,-2.390625 3.953125,-3.171875 1.507813,-0.789062 3.070313,-1.1875 4.6875,-1.1875 h 0.5 c 3.53125,0 5.992187,0.945312 7.390625,2.828125 l -2.4375,1.828125 c -0.8125,-1.082031 -2.464844,-1.625 -4.953125,-1.625 z m 0,0"
           id="path25" />
      </g>
    </g>
  </g>
  <g
     fill="#000000"
     fill-opacity="1"
     id="g31"
     transform="translate(-4.5470191,-147.94125)">
    <g
       transform="translate(224.43181,178.20945)"
       id="g30">
      <g
         id="g29">
        <path
           d="m 4.15625,-28.40625 h 9.859375 V -3.046875 H 20.78125 V 0 h -16.625 v -3.046875 h 6.828125 V -25.375 H 4.15625 Z m 0,0"
           id="path28" />
      </g>
    </g>
  </g>
  <g
     fill="#000000"
     fill-opacity="1"
     id="g34"
     transform="translate(-4.5470191,-147.94125)">
    <g
       transform="translate(249.3687,178.20945)"
       id="g33">
      <g
         id="g32">
        <path
           d="m 22.296875,-11.40625 v 1.671875 c 0,1.480469 -0.1875,2.835937 -0.5625,4.0625 -0.375,1.230469 -0.9375,2.3125 -1.6875,3.25 -0.742187,0.929687 -1.71875,1.648437 -2.9375,2.15625 C 15.898438,0.242188 14.503906,0.5 12.921875,0.5 h -1.03125 C 10.335938,0.5 8.960938,0.238281 7.765625,-0.28125 6.566406,-0.8125 5.597656,-1.546875 4.859375,-2.484375 4.117188,-3.421875 3.5625,-4.5 3.1875,-5.71875 2.820312,-6.945312 2.640625,-8.296875 2.640625,-9.765625 v -1.625 c 0,-2.96875 0.78125,-5.351563 2.34375,-7.15625 1.570313,-1.8125 3.863281,-2.71875 6.875,-2.71875 h 1.15625 c 3.019531,0 5.320313,0.898437 6.90625,2.6875 1.582031,1.792969 2.375,4.183594 2.375,7.171875 z m -9.28125,-6.8125 h -1.15625 c -4.117187,0 -6.171875,2.277344 -6.171875,6.828125 v 1.625 c 0,0.761719 0.050781,1.46875 0.15625,2.125 0.101562,0.65625 0.300781,1.308594 0.59375,1.953125 0.289062,0.636719 0.660156,1.183594 1.109375,1.640625 0.457031,0.449219 1.054687,0.8125 1.796875,1.09375 0.738281,0.28125 1.585938,0.421875 2.546875,0.421875 h 1.03125 c 4.226563,0 6.34375,-2.398438 6.34375,-7.203125 v -1.671875 c 0,-4.539062 -2.085937,-6.8125 -6.25,-6.8125 z m 0,0"
           id="path31" />
      </g>
    </g>
  </g>
  <g
     fill="#000000"
     fill-opacity="1"
     id="g37"
     transform="translate(-4.5470191,-147.94125)">
    <g
       transform="translate(274.30558,178.20945)"
       id="g36">
      <g
         id="g35">
        <path
           d="m 10.4375,-6.359375 c 0,0.679687 0.128906,1.277344 0.390625,1.796875 0.257813,0.523438 0.59375,0.921875 1,1.203125 0.414063,0.28125 0.832031,0.492187 1.25,0.625 0.425781,0.136719 0.84375,0.203125 1.25,0.203125 h 0.5 c 0.84375,0 1.570313,-0.234375 2.1875,-0.703125 0.613281,-0.46875 1.0625,-1.015625 1.34375,-1.640625 l 2.8125,1.21875 C 20.691406,-2.570312 19.894531,-1.609375 18.78125,-0.765625 17.664062,0.078125 16.347656,0.5 14.828125,0.5 h -0.5 c -1.867187,0 -3.492187,-0.632812 -4.875,-1.90625 -1.375,-1.28125 -2.0625,-2.832031 -2.0625,-4.65625 l 0.875,-11.34375 H 2.65625 v -3.046875 h 5.828125 l 0.671875,-8.46875 h 3.0625 l -0.671875,8.46875 H 18.75 v 3.046875 h -7.453125 z m 0,0"
           id="path34" />
      </g>
    </g>
  </g>
  <g
     fill="#000000"
     fill-opacity="1"
     id="g40"
     transform="translate(-4.5470191,-147.94125)">
    <g
       transform="translate(299.24243,178.20945)"
       id="g39">
      <g
         id="g38">
        <path
           d="m 10.4375,-6.359375 c 0,0.679687 0.128906,1.277344 0.390625,1.796875 0.257813,0.523438 0.59375,0.921875 1,1.203125 0.414063,0.28125 0.832031,0.492187 1.25,0.625 0.425781,0.136719 0.84375,0.203125 1.25,0.203125 h 0.5 c 0.84375,0 1.570313,-0.234375 2.1875,-0.703125 0.613281,-0.46875 1.0625,-1.015625 1.34375,-1.640625 l 2.8125,1.21875 C 20.691406,-2.570312 19.894531,-1.609375 18.78125,-0.765625 17.664062,0.078125 16.347656,0.5 14.828125,0.5 h -0.5 c -1.867187,0 -3.492187,-0.632812 -4.875,-1.90625 -1.375,-1.28125 -2.0625,-2.832031 -2.0625,-4.65625 l 0.875,-11.34375 H 2.65625 v -3.046875 h 5.828125 l 0.671875,-8.46875 h 3.0625 l -0.671875,8.46875 H 18.75 v 3.046875 h -7.453125 z m 0,0"
           id="path37" />
      </g>
    </g>
  </g>
  <g
     fill="#000000"
     fill-opacity="1"
     id="g43"
     transform="translate(-4.5470191,-147.94125)">
    <g
       transform="translate(324.17929,178.20945)"
       id="g42">
      <g
         id="g41">
        <path
           d="m 5.6875,-9.859375 v 2.40625 c 0,0.5625 0.128906,1.121094 0.390625,1.671875 0.257813,0.554688 0.640625,1.078125 1.140625,1.578125 0.5,0.492187 1.1875,0.890625 2.0625,1.203125 0.875,0.3125 1.859375,0.46875 2.953125,0.46875 H 12.75 c 0.3125,0 0.613281,-0.00391 0.90625,-0.015625 C 13.957031,-2.566406 14.410156,-2.625 15.015625,-2.71875 15.628906,-2.820312 16.164062,-2.957031 16.625,-3.125 17.09375,-3.300781 17.5625,-3.570312 18.03125,-3.9375 18.5,-4.3125 18.828125,-4.75 19.015625,-5.25 l 2.84375,1.09375 c -0.574219,1.460938 -1.636719,2.601562 -3.1875,3.421875 C 17.128906,0.0859375 15.15625,0.5 12.75,0.5 H 12.234375 C 10.765625,0.5 9.410156,0.269531 8.171875,-0.1875 6.929688,-0.644531 5.914062,-1.25 5.125,-2 4.332031,-2.75 3.71875,-3.59375 3.28125,-4.53125 2.851562,-5.476562 2.640625,-6.453125 2.640625,-7.453125 V -13.375 c 0,-2.320312 0.84375,-4.21875 2.53125,-5.6875 1.695313,-1.476562 4.050781,-2.21875 7.0625,-2.21875 H 12.75 c 3.007812,0 5.351562,0.742188 7.03125,2.21875 1.675781,1.46875 2.515625,3.367188 2.515625,5.6875 v 3.515625 z M 19.265625,-12.90625 V -13.375 c 0,-1.457031 -0.546875,-2.632812 -1.640625,-3.53125 C 16.53125,-17.800781 14.90625,-18.25 12.75,-18.25 h -0.515625 c -2.167969,0 -3.804687,0.449219 -4.90625,1.34375 -1.09375,0.898438 -1.640625,2.074219 -1.640625,3.53125 v 0.46875 z m 0,0"
           id="path40" />
      </g>
    </g>
  </g>
  <g
     fill="#000000"
     fill-opacity="1"
     id="g46"
     transform="translate(-4.5470191,-147.94125)">
    <g
       transform="translate(349.11617,178.20945)"
       id="g45">
      <g
         id="g44">
        <path
           d="m 4.953125,-23.546875 15.0625,9.765625 v 3.203125 L 4.953125,-0.8125 v -3.625 l 11.9375,-7.734375 -11.9375,-7.734375 z m 0,0"
           id="path43" />
      </g>
    </g>
  </g>
</svg>
