<?xml version="1.0" encoding="UTF-8" ?>
<svg version="1.1" width="272" height="144" xmlns="http://www.w3.org/2000/svg" shape-rendering="crispEdges">
<rect x="96" y="0" width="152" height="8" fill="#0F1011" />
<rect x="88" y="8" width="8" height="120" fill="#0F1011" />
<rect x="96" y="8" width="152" height="48" fill="#98AABA" />
<rect x="248" y="8" width="8" height="120" fill="#0F1011" />
<rect x="40" y="32" width="8" height="8" fill="#0F1011" />
<rect x="24" y="40" width="16" height="8" fill="#0F1011" />
<rect x="40" y="40" width="8" height="16" fill="#448A5E" />
<rect x="48" y="40" width="16" height="8" fill="#0F1011" />
<rect x="16" y="48" width="8" height="24" fill="#0F1011" />
<rect x="24" y="48" width="8" height="24" fill="#448A5E" />
<rect x="32" y="48" width="8" height="16" fill="#0F1011" />
<rect x="48" y="48" width="8" height="16" fill="#0F1011" />
<rect x="56" y="48" width="8" height="24" fill="#448A5E" />
<rect x="64" y="48" width="8" height="24" fill="#0F1011" />
<rect x="40" y="56" width="8" height="32" fill="#346D4E" />
<rect x="96" y="56" width="72" height="8" fill="#98AABA" />
<rect x="168" y="56" width="8" height="8" fill="#C5D2DC" />
<rect x="176" y="56" width="72" height="8" fill="#98AABA" />
<rect x="32" y="64" width="8" height="8" fill="#346D4E" />
<rect x="48" y="64" width="8" height="8" fill="#346D4E" />
<rect x="96" y="64" width="64" height="56" fill="#98AABA" />
<rect x="160" y="64" width="8" height="8" fill="#C5D2DC" />
<rect x="168" y="64" width="8" height="56" fill="#98AABA" />
<rect x="176" y="64" width="16" height="8" fill="#C5D2DC" />
<rect x="192" y="64" width="56" height="56" fill="#98AABA" />
<rect x="8" y="72" width="8" height="8" fill="#0F1011" />
<rect x="16" y="72" width="16" height="8" fill="#346D4E" />
<rect x="32" y="72" width="8" height="8" fill="#448A5E" />
<rect x="48" y="72" width="8" height="8" fill="#448A5E" />
<rect x="56" y="72" width="16" height="8" fill="#346D4E" />
<rect x="72" y="72" width="8" height="8" fill="#0F1011" />
<rect x="160" y="72" width="8" height="48" fill="#98AABA" />
<rect x="176" y="72" width="16" height="48" fill="#98AABA" />
<rect x="16" y="80" width="8" height="16" fill="#0F1011" />
<rect x="24" y="80" width="16" height="8" fill="#346D4E" />
<rect x="48" y="80" width="16" height="8" fill="#346D4E" />
<rect x="64" y="80" width="8" height="16" fill="#0F1011" />
<rect x="8" y="88" width="8" height="24" fill="#0F1011" />
<rect x="24" y="88" width="40" height="8" fill="#0F1011" />
<rect x="72" y="88" width="8" height="24" fill="#0F1011" />
<rect x="16" y="96" width="8" height="16" fill="#623120" />
<rect x="24" y="96" width="48" height="8" fill="#B45E4C" />
<rect x="80" y="96" width="8" height="8" fill="#0F1011" />
<rect x="24" y="104" width="48" height="8" fill="#623120" />
<rect x="80" y="104" width="8" height="16" fill="#6A7683" />
<rect x="16" y="112" width="8" height="24" fill="#0F1011" />
<rect x="24" y="112" width="8" height="16" fill="#623120" />
<rect x="32" y="112" width="32" height="16" fill="#B45E4C" />
<rect x="64" y="112" width="8" height="24" fill="#0F1011" />
<rect x="72" y="112" width="8" height="8" fill="#6A7683" />
<rect x="72" y="120" width="16" height="8" fill="#0F1011" />
<rect x="96" y="120" width="152" height="8" fill="#0F1011" />
<rect x="0" y="128" width="16" height="8" fill="#1C1B00" opacity="0.627451" />
<rect x="24" y="128" width="40" height="8" fill="#0F1011" />
<rect x="72" y="128" width="200" height="8" fill="#1C1B00" opacity="0.627451" />
<rect x="8" y="136" width="256" height="8" fill="#1C1B00" opacity="0.627451" />
</svg>